<svg t="1733928259478" class="icon" viewBox="0 0 1024 1024" version="1.1" xmlns="http://www.w3.org/2000/svg" p-id="10557" width="200" height="200"><path d="M824.4 891.6h-472c-18.5 0-33.4 14.9-33.4 33.4s14.9 33.4 33.4 33.4h472.1c18.5 0 33.4-14.9 33.4-33.4s-14.9-33.4-33.5-33.4z m0 0M766.3 391.2c68.4-118.8 79.7-284.4 80.2-291.1 1-12.3-5.7-24.7-16.5-30.9-10.8-6.2-24.2-6.2-35 0.5-24.7 15.9-242.2 156.8-289 236.5-68.3 115.4-236.4 422.9-238 426-1.5 2.6-2.1 5.1-3.1 7.7l-92.1 159.4c-9.3 15.9-3.6 36.5 12.3 45.8 5.1 3.1 10.8 4.6 16.5 4.6 11.3 0 22.6-6.2 28.8-17l94.1-162.5c58.7-40.1 372.9-259.2 441.8-379z m-202.6-51.4C586.9 300.2 686.6 224.1 771 166c-9.3 54.5-27.8 131.1-62.2 191.8-40.2 68.9-191.9 190.8-311.7 279.2 54.5-99.2 127-230.3 166.6-297.2z m0 0" fill="#707070" p-id="10558"></path></svg>