<svg t="1733927748667" class="icon" viewBox="0 0 1024 1024" version="1.1" xmlns="http://www.w3.org/2000/svg" p-id="6293" width="200" height="200"><path d="M945.085 366.643L519.112 183.45a20.531 20.531 0 0 0-8.126-1.69 20.59 20.59 0 0 0-8.146 1.69L76.872 366.643c-8.98 3.845-14.93 13.655-14.93 24.592 0 10.956 5.95 20.74 14.93 24.606L502.835 599.04a20.29 20.29 0 0 0 16.272 0l331.187-142.433v145.715c-17.751 9.4-30.085 29.85-30.085 53.627 0 23.782 12.334 44.226 30.085 53.627v50.831h43.622v-50.821c17.761-9.4 30.106-29.85 30.106-53.637s-12.345-44.237-30.106-53.637V437.847l51.164-22.006c8.976-3.865 14.925-13.655 14.925-24.606 0-10.937-5.95-20.747-14.925-24.592zM510.986 635.807a47.97 47.97 0 0 1-19.03-3.958l-265.55-114.217v157.701c0 129.162 193.66 167.936 254.208 167.936h60.693c45.358 0 254.228-38.774 254.228-167.936V517.637L529.976 631.85a47.764 47.764 0 0 1-18.995 3.958z" fill="#515151" p-id="6294"></path></svg>