<svg t="1733928156442" class="icon" viewBox="0 0 1024 1024" version="1.1" xmlns="http://www.w3.org/2000/svg" p-id="8263" width="200" height="200"><path d="M674.34 472.13c8.33-8.33 20.57-16.16 28.4-28.41 49-56.8 69-130.26 56.81-207.63A250.36 250.36 0 0 0 548 24.53c-89.12-12.24-174.82 20.57-231.63 85.7-44.58 60.77-69.06 134.18-56.82 207.64 12.24 61.21 40.65 114.1 89.62 154.75-142.51 49-244.37 183.15-244.37 337.9v89.62C104.8 957 149.37 1002 206.66 1002h610.68c56.8 0 101.86-44.56 101.86-101.86v-89.62c-0.49-155.24-102.35-289.42-244.86-338.39zM381.49 167c32.81-40.65 81.29-61.22 130.27-61.22 8.32 0 16.16 0 28.4 3.92 73.46 12.3 130.26 73.5 142.51 142.55 8.33 52.88-8.33 101.86-40.67 138.59-40.65 44.56-97.45 69.05-158.67 56.8-73.46-12.24-130.26-73.46-142.51-142.51-8.3-48.48 8.35-101.37 40.67-138.13z m455.93 732.65c0 12.24-8.33 20.57-20.57 20.57H206.66c-12.24 0-20.57-8.33-20.57-20.57V810c0-154.75 126.35-276.69 276.69-276.69h93.54C711.07 533.34 833 659.69 833 810v89.62z" p-id="8264" fill="#707070"></path></svg>