<svg width="70.000000" height="70.062500" viewBox="0 0 70 70.0625" fill="none" xmlns="http://www.w3.org/2000/svg" xmlns:xlink="http://www.w3.org/1999/xlink">
	<desc>
			Created with Pixso.
	</desc>
	<defs/>
	<rect id="画板 2" width="70.000000" height="70.000000" fill="#FFFFFF" fill-opacity="0"/>
	<path id="矢量 1" d="M16.75 54.82C17.74 54.98 18.76 55.06 19.81 55.06C26.68 55.06 31.66 54.14 34.75 52.31C34.87 52.22 35.05 51.77 35.28 50.93C35.51 50.1 35.75 49.13 36 48.03C36.25 46.92 36.45 45.91 36.62 45C36.79 44.08 36.87 43.5 36.87 43.25L36.56 43.06C36.35 42.93 36.07 42.84 35.71 42.78C35.36 42.71 35.06 42.68 34.81 42.68C34.6 42.68 34.39 43.04 34.18 43.75C33.97 44.45 33.68 45.29 33.31 46.25C32.93 47.2 32.41 48.04 31.75 48.75C29.5 51.16 26.31 52.37 22.18 52.37C19.96 52.37 17.92 51.99 16.09 51.22C15.98 50.26 15.93 49.27 15.93 48.25C15.93 46 16.31 43.82 17.06 41.71C17.81 39.61 18.86 37.72 20.21 36.06C21.57 34.39 23.14 33.07 24.93 32.09C26.72 31.11 28.64 30.62 30.68 30.62C33.39 30.62 35.67 31.04 37.53 31.87C39.38 32.7 40.81 33.85 41.81 35.31C42.39 36.22 42.78 36.96 42.96 37.53C43.15 38.09 43.31 38.64 43.43 39.18C43.56 39.39 43.83 39.5 44.25 39.5Q45.11 39.5 45.41 39.08Q45.56 38.87 45.56 38.56L45.68 29.56C43.1 29.02 40.54 28.62 38 28.37C35.45 28.12 32.95 28 30.5 28C27.62 28 24.94 28.56 22.46 29.68C19.98 30.81 17.81 32.36 15.93 34.34C14.06 36.32 12.6 38.61 11.56 41.21C10.86 42.97 10.39 44.8 10.16 46.72Q9.84 46.33 9.55 45.92Q8.43 44.38 7.68 42.56C6.52 39.81 5.93 36.7 5.93 33.25C5.93 31 6.31 28.82 7.06 26.71C7.81 24.61 8.86 22.72 10.21 21.06C11.57 19.39 13.14 18.07 14.93 17.09C16.72 16.11 18.64 15.62 20.68 15.62C23.39 15.62 25.67 16.04 27.53 16.87C29.38 17.7 30.81 18.85 31.81 20.31C32.39 21.22 32.78 21.96 32.96 22.53C33.15 23.09 33.31 23.64 33.43 24.18C33.56 24.39 33.83 24.5 34.25 24.5C35.12 24.5 35.56 24.18 35.56 23.56L35.68 14.56C33.1 14.02 30.54 13.62 28 13.37Q24.18 13 20.5 13Q17.04 13 13.97 14.08Q13.21 14.35 12.46 14.68C9.98 15.81 7.81 17.36 5.93 19.34C4.06 21.32 2.6 23.61 1.56 26.21C0.52 28.82 0 31.6 0 34.56C0 37.35 0.51 39.98 1.53 42.46C2.55 44.94 3.96 47.12 5.78 49C7.09 50.36 8.56 51.51 10.19 52.45C10.42 54.19 10.87 55.86 11.53 57.46C12.55 59.94 13.96 62.12 15.78 64C17.59 65.87 19.69 67.35 22.09 68.43C24.48 69.52 27.06 70.06 29.81 70.06C36.68 70.06 41.66 69.14 44.75 67.31C44.87 67.22 45.05 66.77 45.28 65.93C45.51 65.1 45.75 64.13 46 63.03C46.25 61.92 46.45 60.91 46.62 60C46.79 59.08 46.87 58.5 46.87 58.25L46.56 58.06C46.35 57.93 46.07 57.84 45.71 57.78C45.36 57.71 45.06 57.68 44.81 57.68C44.6 57.68 44.39 58.04 44.18 58.75C43.97 59.45 43.68 60.29 43.31 61.25C42.93 62.2 42.41 63.04 41.75 63.75C39.5 66.16 36.31 67.37 32.18 67.37C28.72 67.37 25.73 66.44 23.21 64.59Q21.05 63 19.55 60.92Q18.43 59.38 17.68 57.56C17.31 56.68 17 55.77 16.75 54.82Z" fill="#000000" fill-opacity="1.000000" fill-rule="evenodd"/>
	<path id="矢量 1" d="M47.03 25C47.03 25.33 47.07 25.54 47.15 25.62L51.84 25.5L57.15 25.5C59.14 25.5 60.87 25.2 62.34 24.61C63.82 24.01 64.96 23.17 65.77 22.09C66.59 21 67 19.72 67 18.25C67 17.4 66.79 16.58 66.39 15.81C65.99 15.03 65.5 14.34 64.9 13.74C64.31 13.13 63.69 12.63 63.04 12.24Q62.07 11.66 61.3 11.55C61.22 11.47 61.28 11.39 61.49 11.31C61.85 11.18 62.29 10.96 62.79 10.65C63.29 10.34 63.84 9.79 64.44 8.99C65.03 8.16 65.33 7.29 65.33 6.39Q65.33 4.56 64.48 3.29Q64.47 3.27 64.46 3.25C63.87 2.4 63.13 1.72 62.21 1.22C61.29 0.71 60.32 0.37 59.28 0.19C58.95 0.14 58.6 0.1 58.25 0.07C57.91 0.05 57.56 0.03 57.23 0.03L55.02 0.03L51.76 0.07C50.88 0.07 50.06 0.07 49.3 0.05C48.54 0.04 47.82 0.02 47.15 0C47.13 0.01 47.12 0.03 47.1 0.05C47.03 0.17 47 0.37 47 0.65C47 0.85 47.02 0.98 47.06 1.05C47.08 1.1 47.11 1.12 47.15 1.12C47.38 1.12 47.7 1.16 48.1 1.24C48.5 1.31 48.87 1.42 49.22 1.55C49.57 1.67 49.77 1.82 49.82 1.97C49.89 2.19 49.95 2.47 49.99 2.79C50.01 2.96 50.02 3.14 50.04 3.33C50.05 3.54 50.06 3.77 50.07 4.01C50.09 4.4 50.1 4.84 50.1 5.31L50.1 19.96C50.1 22.1 50.01 23.32 49.82 23.6C49.75 23.75 49.53 23.9 49.18 24.03C48.84 24.16 48.47 24.27 48.08 24.36C47.69 24.45 47.38 24.49 47.15 24.49C47.07 24.49 47.03 24.66 47.03 25ZM58.2 10.93C57.58 11 56.85 11.04 56.03 11.04C54.32 11.04 53.47 10.95 53.47 10.77L53.47 6.16L53.62 2.24C53.62 2.04 53.7 1.92 53.86 1.89C54.48 1.71 55.39 1.62 56.61 1.62C58.36 1.62 59.69 2.12 60.58 3.12C61.47 4.11 61.92 5.5 61.92 7.28C61.92 8.34 61.56 9.19 60.85 9.82C60.14 10.45 59.26 10.82 58.2 10.93ZM58.1 23.6C57.47 23.7 56.83 23.75 56.18 23.75C55.2 23.75 54.5 23.57 54.09 23.21C53.67 22.88 53.47 21.73 53.47 19.76L53.47 14.1C53.47 14.07 53.47 14.03 53.47 14C53.47 13.48 53.53 13.09 53.62 12.82C54.27 12.77 54.82 12.73 55.29 12.71C55.75 12.68 56.13 12.67 56.41 12.67C58.02 12.67 59.32 12.94 60.33 13.48C61.34 14.03 62.09 14.75 62.58 15.65C63.07 16.56 63.31 17.57 63.31 18.68C63.31 19.79 63.04 20.71 62.5 21.45C61.96 22.18 61.25 22.7 60.37 22.98C59.49 23.29 58.73 23.5 58.1 23.6Z" fill="#000000" fill-opacity="1.000000" fill-rule="evenodd"/>
</svg>
