<?xml version="1.0" standalone="no"?><!DOCTYPE svg PUBLIC "-//W3C//DTD SVG 1.1//EN" "http://www.w3.org/Graphics/SVG/1.1/DTD/svg11.dtd"><svg t="1731238004591" class="icon" viewBox="0 0 1024 1024" version="1.1" xmlns="http://www.w3.org/2000/svg" p-id="5096" xmlns:xlink="http://www.w3.org/1999/xlink" width="200" height="200"><path d="M867.90864 417.42999a457.596822 457.596822 0 0 1-221.680239 392.516385 50.844091 50.844091 0 1 1-50.844091-86.94339599 355.90864 355.90864 0 0 0 138.804369-152.53227401l-16.77855 1e-8a152.532274 152.532274 0 1 1 152.532274-152.532274z m-406.752731 0a457.596822 457.596822 0 0 1-221.680239 392.007944 50.844091 50.844091 0 1 1-50.844091-86.943396 355.90864 355.90864 0 0 0 138.804369-152.532274l-16.77855 0a152.532274 152.532274 0 1 1 152.532274-152.532274z" fill="#8a8a8a" p-id="5097"></path></svg>