<?xml version="1.0" standalone="no"?><!DOCTYPE svg PUBLIC "-//W3C//DTD SVG 1.1//EN" "http://www.w3.org/Graphics/SVG/1.1/DTD/svg11.dtd"><svg t="1732105528369" class="icon" viewBox="0 0 1024 1024" version="1.1" xmlns="http://www.w3.org/2000/svg" p-id="6885" xmlns:xlink="http://www.w3.org/1999/xlink" width="200" height="200"><path d="M261.81632 469.1968L512 737.28l250.22464-268.0832 242.31936 77.53728c10.752 3.44064 19.456 15.42144 19.456 26.84928v265.95328c0 11.38688-8.88832 23.47008-19.456 26.8288l-434.05312 138.91584c-32.29696 10.3424-84.5824 10.36288-116.98176 0L19.456 866.38592C8.704 862.94528 0 850.944 0 839.53664V573.58336c0-11.38688 8.88832-23.47008 19.456-26.8288l242.36032-77.57824z m58.368-18.69824l152.90368-48.9472c21.504-6.8608 56.5248-6.79936 77.824 0l152.94464 48.9472L512 655.36l-191.7952-204.86144z" fill="#bfbfbf" p-id="6886"></path><path d="M471.04 327.68V0h81.92v327.68h266.24L512 655.36 204.8 327.68z" fill="#bfbfbf" p-id="6887"></path></svg>