<?xml version="1.0" standalone="no"?><!DOCTYPE svg PUBLIC "-//W3C//DTD SVG 1.1//EN" "http://www.w3.org/Graphics/SVG/1.1/DTD/svg11.dtd"><svg t="1730960419932" class="icon" viewBox="0 0 1877 1024" version="1.1" xmlns="http://www.w3.org/2000/svg" p-id="6717" xmlns:xlink="http://www.w3.org/1999/xlink" width="366.6015625" height="200"><path d="M1644.288 73.386667l-704.938667 657.664L234.325333 73.386667A122.282667 122.282667 0 0 0 74.24 73.386667C35.754667 106.666667 29.269333 159.829333 61.354667 199.68c6.4 6.570667 6.4 13.226667 12.8 13.226667l781.824 737.28c38.4 33.28 89.770667 39.850667 128.170666 19.968 6.4 0 12.8-6.656 25.6-13.312l788.309334-730.624c25.6-19.968 38.4-53.162667 38.4-86.357334 0-26.538667-12.8-53.162667-32-73.045333-44.8-33.28-115.370667-33.28-160.170667 6.656z" fill="#ffffff" p-id="6718"></path></svg>