<svg width="197.562500" height="69.096207" viewBox="0 0 197.562 69.0962" fill="none" xmlns="http://www.w3.org/2000/svg" xmlns:xlink="http://www.w3.org/1999/xlink">
	<desc>
			Created with Pixso.
	</desc>
	<defs/>
	<path id="矢量 1" d="M19.81 42.06C18.76 42.06 17.74 41.98 16.75 41.82C17 42.77 17.31 43.68 17.68 44.56Q18.43 46.38 19.55 47.92L19.55 47.92Q21.05 50 23.21 51.59C25.73 53.44 28.72 54.37 32.18 54.37C36.31 54.37 39.5 53.16 41.75 50.75C42.41 50.04 42.93 49.2 43.31 48.25C43.68 47.29 43.97 46.45 44.18 45.75C44.39 45.04 44.6 44.68 44.81 44.68C45.06 44.68 45.36 44.71 45.71 44.78C46.07 44.84 46.35 44.93 46.56 45.06L46.87 45.25C46.87 45.5 46.79 46.08 46.62 47C46.45 47.91 46.25 48.92 46 50.03C45.75 51.13 45.51 52.1 45.28 52.93C45.05 53.77 44.87 54.22 44.75 54.31C41.66 56.14 36.68 57.06 29.81 57.06C27.06 57.06 24.48 56.52 22.09 55.43C19.69 54.35 17.59 52.87 15.78 51C13.96 49.12 12.55 46.94 11.53 44.46C10.87 42.86 10.42 41.19 10.19 39.45C8.56 38.51 7.09 37.36 5.78 36C3.96 34.12 2.55 31.94 1.53 29.46C0.51 26.98 0 24.35 0 21.56C0 18.6 0.52 15.82 1.56 13.21C2.6 10.61 4.06 8.32 5.93 6.34C7.81 4.36 9.98 2.81 12.46 1.68Q13.21 1.35 13.97 1.08L13.97 1.08Q17.04 0 20.5 0Q24.18 0 28 0.37C30.54 0.62 33.1 1.02 35.68 1.56L35.56 10.56C35.56 11.18 35.12 11.5 34.25 11.5C33.83 11.5 33.56 11.39 33.43 11.18C33.31 10.64 33.15 10.09 32.96 9.53C32.78 8.96 32.39 8.22 31.81 7.31C30.81 5.85 29.38 4.7 27.53 3.87C25.67 3.04 23.39 2.62 20.68 2.62C18.64 2.62 16.72 3.11 14.93 4.09C13.14 5.07 11.57 6.39 10.21 8.06C8.86 9.72 7.81 11.61 7.06 13.71C6.31 15.82 5.93 18 5.93 20.25C5.93 23.7 6.52 26.81 7.68 29.56Q8.43 31.38 9.55 32.92Q9.84 33.33 10.16 33.72C10.39 31.8 10.86 29.97 11.56 28.21C12.6 25.61 14.06 23.32 15.93 21.34C17.81 19.36 19.98 17.81 22.46 16.68Q23.21 16.35 23.97 16.08L23.97 16.08Q27.04 15 30.5 15C32.95 15 35.45 15.12 38 15.37C40.54 15.62 43.1 16.02 45.68 16.56L45.56 25.56Q45.56 25.87 45.41 26.08Q45.11 26.5 44.25 26.5C43.83 26.5 43.56 26.39 43.43 26.18C43.31 25.64 43.15 25.09 42.96 24.53C42.78 23.96 42.39 23.22 41.81 22.31C40.81 20.85 39.38 19.7 37.53 18.87C35.67 18.04 33.39 17.62 30.68 17.62C28.64 17.62 26.72 18.11 24.93 19.09C23.14 20.07 21.57 21.39 20.21 23.06C18.86 24.72 17.81 26.61 17.06 28.71C16.31 30.82 15.93 33 15.93 35.25C15.93 36.27 15.98 37.26 16.09 38.22C17.92 38.99 19.96 39.37 22.18 39.37C26.31 39.37 29.5 38.16 31.75 35.75C32.41 35.04 32.93 34.2 33.31 33.25C33.68 32.29 33.97 31.45 34.18 30.75C34.39 30.04 34.6 29.68 34.81 29.68C35.06 29.68 35.36 29.71 35.71 29.78Q36.25 29.87 36.56 30.06L36.87 30.25C36.87 30.5 36.79 31.08 36.62 32C36.45 32.91 36.25 33.92 36 35.03C35.75 36.13 35.51 37.1 35.28 37.93C35.05 38.77 34.87 39.22 34.75 39.31C31.66 41.14 26.68 42.06 19.81 42.06ZM50.75 49.87C50.62 49.75 50.56 49.41 50.56 48.87C50.56 48.33 50.62 48.06 50.75 48.06C51.12 48.06 51.62 47.98 52.25 47.84C52.87 47.69 53.46 47.52 54.03 47.31C54.59 47.1 54.93 46.87 55.06 46.62C55.35 46.16 55.5 44.2 55.5 40.75L55.5 17.12C55.5 15.91 55.46 14.85 55.4 13.93C55.34 13.02 55.22 12.29 55.06 11.75C54.97 11.5 54.65 11.27 54.09 11.06C53.53 10.85 52.92 10.68 52.28 10.56C51.63 10.43 51.12 10.37 50.75 10.37C50.58 10.37 50.5 10.12 50.5 9.62C50.5 9.08 50.58 8.72 50.75 8.56C51.83 8.6 52.98 8.63 54.21 8.65C55.44 8.67 56.77 8.68 58.18 8.68L63.43 8.62L67 8.62C67.54 8.62 68.09 8.64 68.65 8.68C69.21 8.72 69.77 8.79 70.31 8.87C71.97 9.16 73.55 9.71 75.03 10.53C76.51 11.34 77.71 12.43 78.65 13.81Q78.67 13.84 78.69 13.87Q80.06 15.92 80.06 18.87C80.06 20.33 79.58 21.72 78.62 23.06C77.66 24.35 76.78 25.25 75.96 25.75C75.15 26.25 74.45 26.6 73.87 26.81C73.63 26.9 73.51 26.99 73.51 27.08C73.51 27.11 73.52 27.15 73.56 27.18Q74.81 27.37 76.37 28.31Q77.93 29.25 79.37 30.71C80.33 31.69 81.13 32.81 81.78 34.06C82.42 35.31 82.75 36.62 82.75 38C82.75 40.37 82.09 42.43 80.78 44.18C79.46 45.93 77.62 47.29 75.25 48.25C72.87 49.2 70.08 49.68 66.87 49.68L58.31 49.68L50.75 49.87ZM141.06 53.06C140.81 53.06 140.68 52.7 140.68 52L140.68 51.25C140.68 51.04 140.6 50.95 140.43 51C138.14 52.29 135.93 52.93 133.81 52.93C131.52 52.93 129.44 52.36 127.59 51.21C125.74 50.07 124.28 48.55 123.21 46.65C122.15 44.76 121.62 42.68 121.62 40.43C121.62 38.43 122.01 36.52 122.78 34.68C123.55 32.85 124.59 31.21 125.9 29.78C127.21 28.34 128.7 27.21 130.37 26.4C132.04 25.59 133.77 25.18 135.56 25.18C137.35 25.18 138.91 25.54 140.25 26.25C140.54 26.25 140.68 25.87 140.68 25.12L140.68 18.37C140.68 16.95 140.56 15.62 140.31 14.37C140.14 13.7 139.08 13.37 137.12 13.37L136.56 13.37C136.31 13.37 136.18 13.14 136.18 12.68C136.18 12.02 136.31 11.68 136.56 11.68Q140.06 11.37 142.09 10.75C143.44 10.33 144.41 9.91 145 9.5L145.25 9.31L145.37 9.31C145.54 9.31 145.7 9.42 145.87 9.65C146.04 9.88 146.14 10.1 146.18 10.31C145.72 11.68 145.5 13.5 145.5 15.75L145.5 43.87C145.5 45.83 145.62 47.41 145.87 48.62C146 49.04 146.36 49.3 146.96 49.4C147.57 49.51 148.2 49.6 148.87 49.68L149.43 49.75Q149.62 49.81 149.62 50.5Q149.62 51.3 149.34 51.41Q149.3 51.43 149.25 51.43C147.87 51.52 146.45 51.73 145 52.09Q142.81 52.62 141.62 52.93L141.06 53.06ZM65.06 26.37C66.39 26.37 67.56 26.31 68.56 26.18C70.27 26.02 71.69 25.42 72.84 24.4C73.98 23.38 74.56 22.02 74.56 20.31C74.56 17.43 73.84 15.19 72.4 13.59C70.96 11.98 68.83 11.18 66 11.18C64.04 11.18 62.56 11.33 61.56 11.62C61.31 11.66 61.18 11.85 61.18 12.18L60.93 18.5L60.93 25.93C60.93 26.22 62.31 26.37 65.06 26.37ZM119.78 21.6C118.97 21.41 118.33 20.93 117.87 20.18C117.55 19.65 117.39 19.11 117.39 18.55Q117.39 18.19 117.48 17.83C117.69 16.98 118.17 16.33 118.92 15.89C119.67 15.46 120.45 15.34 121.26 15.53C122.11 15.74 122.76 16.21 123.2 16.94C123.5 17.44 123.65 17.96 123.65 18.52C123.65 18.77 123.62 19.04 123.55 19.31C123.36 20.12 122.89 20.76 122.15 21.22C121.42 21.68 120.63 21.81 119.78 21.6ZM82.66 47.67C82.6 47.58 82.57 47.44 82.57 47.26Q82.57 46.99 82.67 46.58C82.79 46.1 82.93 45.87 83.09 45.91C83.42 45.99 83.88 46.04 84.47 46.06C85.07 46.07 85.63 46.04 86.17 45.96C86.71 45.87 87.01 45.75 87.09 45.6C87.39 45.08 87.66 44.45 87.9 43.74C88.14 43.03 88.36 42.27 88.56 41.46L91.36 29.98C91.54 29.24 91.63 28.59 91.63 28.03C91.63 27.42 91.52 26.9 91.31 26.49C91.02 25.91 90.62 25.47 90.12 25.17C89.61 24.88 89.15 24.67 88.73 24.55C88.32 24.43 88.12 24.33 88.12 24.25L88.12 24.24Q88.12 24.24 88.12 24.24C88.36 23.27 88.61 22.79 88.86 22.81C93.44 23.2 96.1 23.37 96.84 23.34L97.94 23.29C98.08 23.29 98.14 23.4 98.14 23.63C98.14 23.69 98.14 23.77 98.13 23.85C98.08 24.22 98.01 24.49 97.93 24.64L96.83 27.58C97.82 26.67 99.08 25.89 100.58 25.25C102.09 24.61 103.47 24.44 104.73 24.75C107.07 25.32 108.51 26.3 109.03 27.67C108.69 29.08 108.21 30.06 107.61 30.6C107.01 31.14 106.38 31.33 105.73 31.17C105 30.99 104.42 30.49 103.98 29.65C103.54 28.82 102.8 28.27 101.74 28.01C100.93 27.81 100.1 27.9 99.24 28.27C98.37 28.64 97.63 29.18 97 29.91C96.37 30.64 95.95 31.45 95.73 32.34L93.51 41.44Q93.08 43.2 92.88 44.57C92.74 45.45 92.68 46.23 92.68 46.91Q92.68 46.94 92.68 46.97Q92.74 47.24 93.4 47.72C93.83 48.04 94.33 48.33 94.89 48.6C95.44 48.86 95.84 49.02 96.09 49.08C96.16 49.1 96.2 49.21 96.2 49.4C96.2 49.52 96.18 49.68 96.15 49.87C96.07 50.37 95.97 50.71 95.84 50.89L89.36 48.99L82.66 47.67ZM187.18 53.06C184.89 53.06 182.79 52.45 180.87 51.25C178.95 50.04 177.42 48.42 176.28 46.4C175.13 44.38 174.56 42.12 174.56 39.62C174.56 36.7 175.1 34.18 176.18 32.06C177.27 29.93 178.75 28.3 180.62 27.15C182.5 26.01 184.6 25.43 186.93 25.43C188.85 25.43 190.54 25.8 192 26.53Q194.18 27.62 195.37 29.31C196.12 30.47 196.67 31.65 197.03 32.84C197.38 34.03 197.56 35.2 197.56 36.37C197.56 37.2 197.43 37.71 197.18 37.9C196.93 38.09 196.45 38.18 195.75 38.18L180 38.18C179.66 38.18 179.5 38.29 179.5 38.5C179.5 40.25 179.85 41.92 180.56 43.53C181.27 45.13 182.31 46.45 183.68 47.5C185.06 48.54 186.75 49.06 188.75 49.06C190.5 49.06 191.96 48.8 193.15 48.28C194.34 47.76 195.2 47.29 195.75 46.87L196.18 46.56C196.43 46.56 196.56 46.83 196.56 47.37C196.56 47.66 196.43 48.04 196.18 48.5C195.35 49.66 194.12 50.71 192.5 51.65C190.87 52.59 189.1 53.06 187.18 53.06ZM166.91 68.68C164.99 69.06 163.11 69.18 161.28 69.03C159.44 68.88 157.89 68.4 156.63 67.59C155.36 66.78 154.58 65.62 154.28 64.11C154.22 63.8 154.19 63.49 154.19 63.19C154.19 60.95 155.79 58.7 159 56.42C157.87 56.47 156.74 56.17 155.63 55.49C154.52 54.82 153.85 53.87 153.6 52.65C153.55 52.4 153.53 52.14 153.53 51.88C153.53 51.02 153.8 50.08 154.33 49.06C155.02 47.74 155.87 46.59 156.86 45.63C155.98 45.46 155.09 45.07 154.18 44.44C153.27 43.81 152.46 43.02 151.76 42.05C151.06 41.09 150.6 40.03 150.37 38.89C150.27 38.36 150.21 37.85 150.21 37.34C150.21 36.26 150.45 35.22 150.91 34.22C151.6 32.75 152.65 31.48 154.07 30.41C155.5 29.34 157.19 28.62 159.15 28.23C160.75 27.91 162.54 27.83 164.52 27.99C166.51 28.15 168.18 28.1 169.52 27.83L173.08 27.13C173.33 27.12 173.56 27.61 173.75 28.59C173.79 28.77 173.8 28.92 173.8 29.05C173.8 29.33 173.72 29.48 173.55 29.52L169.2 30.38C169.06 30.41 168.99 30.47 168.99 30.57C168.99 30.58 168.99 30.6 168.99 30.61L169.9 31.96C170.55 32.9 170.97 33.83 171.15 34.77C171.24 35.23 171.29 35.69 171.29 36.15C171.29 37.17 171.07 38.19 170.63 39.21C169.99 40.69 168.98 42 167.61 43.12C166.24 44.24 164.6 44.99 162.67 45.37C162.02 45.5 161.4 45.6 160.82 45.67C160.24 45.75 159.7 45.79 159.19 45.8C158.53 46.53 158.02 47.25 157.67 47.95C157.42 48.48 157.29 48.97 157.29 49.45C157.29 49.61 157.3 49.77 157.33 49.93Q157.46 50.55 157.83 50.94Q158.37 51.5 159.44 51.55C160.64 51.61 162.14 51.47 163.94 51.11C166.48 50.65 168.67 50.37 170.5 50.29Q173.24 50.16 174.91 50.53C177.15 51.11 178.46 52.35 178.84 54.28C178.97 54.95 179.04 55.63 179.04 56.29C179.04 57.68 178.75 59.05 178.17 60.4C177.31 62.39 175.91 64.12 173.97 65.59C172.03 67.06 169.68 68.09 166.91 68.68ZM180 35.56L192.18 35.56C192.39 35.56 192.5 35.35 192.5 34.93C192.5 34.02 192.26 33.01 191.78 31.9Q191.61 31.52 191.41 31.16Q190.73 29.96 189.62 29C188.66 28.16 187.45 27.75 186 27.75C184.66 27.75 183.52 28.19 182.56 29.09C181.6 29.98 180.87 31.01 180.37 32.15C179.87 33.3 179.62 34.29 179.62 35.12C179.62 35.41 179.75 35.56 180 35.56ZM136.18 49.87C137.6 49.87 138.7 49.55 139.5 48.9C140.29 48.26 140.68 47.39 140.68 46.31L140.68 31.43Q140.68 31.3 140.67 31.17Q140.54 30 139.28 28.96C138.34 28.19 136.83 27.81 134.75 27.81Q133.41 27.81 132.27 28.28Q131.39 28.65 130.62 29.31C129.45 30.31 128.56 31.63 127.93 33.28C127.31 34.92 127 36.7 127 38.62C127 40.62 127.36 42.47 128.09 44.18C128.82 45.89 129.87 47.27 131.25 48.31C132.62 49.35 134.27 49.87 136.18 49.87ZM105.68 53.29C105.62 53.19 105.59 53.05 105.59 52.88C105.59 52.69 105.62 52.47 105.68 52.2C105.8 51.71 105.94 51.49 106.11 51.53C106.43 51.61 106.89 51.66 107.49 51.67C108.08 51.69 108.65 51.66 109.18 51.57C109.72 51.49 110.03 51.37 110.11 51.22C110.41 50.69 110.67 50.07 110.91 49.36C111.15 48.64 111.37 47.88 111.57 47.07L114.37 35.6C114.55 34.86 114.64 34.21 114.64 33.65C114.64 33.03 114.53 32.52 114.32 32.11C114.04 31.48 113.64 31.03 113.11 30.75C112.57 30.47 112.11 30.27 111.71 30.15C111.33 30.04 111.14 29.94 111.14 29.87L111.14 29.86Q111.14 29.86 111.14 29.85C111.37 28.88 111.62 28.41 111.87 28.42C114.1 28.62 115.8 28.75 116.99 28.81C118.18 28.86 119.24 28.89 120.18 28.91L120.95 28.9C121.09 28.9 121.16 29.02 121.16 29.24C121.16 29.31 121.15 29.38 121.14 29.46C121.09 29.84 121.03 30.1 120.95 30.25C120.67 31.04 120.41 31.8 120.17 32.51C119.93 33.22 119.73 33.9 119.58 34.55L116.52 47.06C116.24 48.23 116.03 49.28 115.89 50.19C115.76 51.07 115.69 51.85 115.69 52.52Q115.69 52.55 115.69 52.58C115.73 52.76 115.97 53.01 116.41 53.34C116.84 53.66 117.33 53.95 117.87 54.21C118.41 54.47 118.8 54.63 119.04 54.68C119.11 54.7 119.15 54.81 119.15 55C119.15 55.12 119.13 55.28 119.1 55.47C119.03 55.97 118.92 56.31 118.79 56.49L112.37 54.6L105.68 53.29ZM65.31 46.87C66.35 46.87 67.38 46.79 68.4 46.62C69.42 46.45 70.64 46.12 72.06 45.62C73.47 45.16 74.62 44.34 75.5 43.15C76.37 41.96 76.81 40.47 76.81 38.68C76.81 36.89 76.41 35.27 75.62 33.81C74.83 32.35 73.62 31.18 72 30.31C70.37 29.43 68.27 29 65.68 29C65.22 29 64.62 29.02 63.87 29.06C63.12 29.1 62.22 29.16 61.18 29.25C61.02 29.7 60.93 30.39 60.93 31.31L60.93 40.43C60.93 43.6 61.27 45.45 61.93 46C62.6 46.58 63.72 46.87 65.31 46.87ZM162.2 43.3C163.8 42.98 164.99 42.11 165.79 40.68C166.35 39.67 166.63 38.6 166.63 37.45C166.63 36.96 166.58 36.46 166.48 35.95C166.11 34.07 165.21 32.59 163.79 31.52C162.36 30.44 160.87 30.05 159.32 30.36C157.73 30.68 156.53 31.55 155.73 32.98C155.17 33.99 154.89 35.06 154.89 36.21C154.89 36.7 154.94 37.19 155.04 37.71C155.41 39.59 156.31 41.07 157.74 42.14C159.16 43.22 160.65 43.61 162.2 43.3ZM168.24 66.06C169.87 65.74 171.26 65.14 172.41 64.28C173.55 63.41 174.39 62.42 174.91 61.3Q175.46 60.11 175.46 58.94Q175.46 58.88 175.46 58.82L175.46 58.81L175.46 58.81Q175.45 58.38 175.36 57.96C175.02 56.24 173.96 55.26 172.17 55.02C170.41 54.73 167.1 55.07 162.24 56.03C161.91 56.1 161.39 56.39 160.66 56.92C159.94 57.44 159.31 58.13 158.78 58.98C158.4 59.58 158.21 60.25 158.21 60.98C158.21 61.28 158.24 61.59 158.3 61.91C158.53 63.05 159.16 63.99 160.2 64.72C161.23 65.45 162.47 65.93 163.89 66.15C165.32 66.38 166.77 66.35 168.24 66.06Z" fill="#FCFBFB" fill-opacity="1.000000" fill-rule="evenodd"/>
</svg>
