<svg t="1734526898890" class="icon" viewBox="0 0 1024 1024" version="1.1" xmlns="http://www.w3.org/2000/svg" p-id="9315" width="200" height="200"><path d="M21.276931 1024l0-55.349518 996.099364 0L1017.376294 1024 21.276931 1024zM24.156385 654.917895 24.156385 654.917895l616.971161-636.295502c23.483553-24.18742 62.260209-24.891286 86.639593-1.471721l132.070989 127.143922c24.379383 23.419565 25.019262 62.004258 1.535709 86.255665l-621.322337 654.46806-218.710582 0.639879 0-221.334085M272.365381 769.712156 126.792949 636.873312 75.09074 687.039812l1.535709 143.204881 141.41322-0.255952M169.34489 592.913637l142.692978 137.126032 413.425708-447.211309L593.264611 155.684437 169.34489 592.913637zM685.087222 61.046359l-49.270669 50.806379L768.079505 238.932672l49.270669-50.806379L685.087222 61.046359z" p-id="9316" fill="#707070"></path></svg>