<?xml version="1.0" standalone="no"?><!DOCTYPE svg PUBLIC "-//W3C//DTD SVG 1.1//EN" "http://www.w3.org/Graphics/SVG/1.1/DTD/svg11.dtd"><svg t="1730949899229" class="icon" viewBox="0 0 1204 1024" version="1.1" xmlns="http://www.w3.org/2000/svg" p-id="5291" xmlns:xlink="http://www.w3.org/1999/xlink" width="235.15625" height="200"><path d="M541.10218748-81.40625001l1.5346875-1.9378125q-0.8071875 0.9553125-1.5346875 1.9378125zM543.30906248 1100.22156249l-2.7721875-3.4996875c2.923125 4.201875 6.6590625 7.629375 11.0025 10.1184375z" p-id="5292" fill="#ffffff"></path><path d="M1125.60906248 977.12781249c2.0728125 0.309375 4.1325 0.6328125 6.2184375 0.915-2.2125-0.583125-4.75499999-0.92625-7.3753125-0.9459375zM1155.22187498 1008.15343749zM1121.85437498 1039.13968749q-2.32875-0.3365625-4.6565625-0.699375c1.9715625 0.4725 4.243125 0.755625 6.57468751 0.7809375z" p-id="5293" fill="#ffffff"></path><path d="M1114.62531248-23.09562501c2.4365625-0.3890625 4.8853125-0.7396875 7.335-1.0903125-2.94187499 0.0975-5.7346875 0.5728125-8.3821875 1.381875zM1130.63031248 39.18249998c-1.9246875 0.268125-3.83625 0.55125-5.7478125 0.84843752 2.630625-0.1509375 5.09625-0.5953125 7.4475-1.29937501z" p-id="5294" fill="#ffffff"></path><path d="M313.77343748-40.43375001c-5.356875 5.446875-8.6625 12.9234375-8.66250001 21.1725s3.3065625 15.725625 8.66718751 21.17625l500.431875 500.458125-500.435625 512.011875c-5.169375 5.3746875-8.3540625 12.6909375-8.3540625 20.750625 0 16.5403125 13.408125 29.9484375 29.9484375 29.9484375 8.0596875 0 15.3759375-3.18375 20.76093751-8.3625l519.71437498-531.2503125c5.356875-5.446875 8.6625-12.9234375 8.66250001-21.1725s-3.3065625-15.725625-8.6671875-21.17625l-519.7059375-523.5965625c-15.399375-11.50875-30.8109375-11.50875-42.3590625 0.04125z" p-id="5295" fill="#ffffff"></path></svg>