<?xml version="1.0" standalone="no"?><!DOCTYPE svg PUBLIC "-//W3C//DTD SVG 1.1//EN" "http://www.w3.org/Graphics/SVG/1.1/DTD/svg11.dtd"><svg class="icon" width="200px" height="200.00px" viewBox="0 0 1024 1024" version="1.1" xmlns="http://www.w3.org/2000/svg"><path d="M928 128H576l-25.6 6.4-38.4 44.8-38.4-44.8L448 128H96l-32 32v640l32 32h339.2l57.6 57.6h44.8l51.2-57.6h339.2l32-32v-640l-32-32zM467.2 774.4L448 768H128V192h307.2l44.8 44.8v550.4l-12.8-12.8zM896 768H576l-25.6 6.4-6.4 6.4V236.8l44.8-44.8H896v576zM384 320H192v64h192V320z m0 128H192v64h192V448zM192 576h192v64H192V576z m640-256h-192v64h192V320z m-192 128h192v64h-192V448z m0 128h192v64h-192V576z" fill="#FFFFFF" /></svg>